<svg xmlns="http://www.w3.org/2000/svg" width="510" height="300" viewBox="0 0 510 300" fill="none">
  <path fill-rule="evenodd" clip-rule="evenodd" d="M182.856 295.366C172.285 297.745 161.289 299 150 299C67.7096 299 1 232.29 1 150C1 67.7096 67.7096 1 150 1C161.289 1 172.285 2.25551 182.856 4.6345C117.979 21.162 70 79.9779 70 150C70 220.022 117.979 278.838 182.856 295.366ZM185 294.866C119.597 279.121 71 220.236 71 150C71 79.7642 119.597 20.8787 185 5.13381C196.935 8.00704 208.311 12.3169 218.933 17.8702C171.938 43.2001 140 92.8703 140 150C140 207.13 171.938 256.8 218.933 282.13C208.311 287.683 196.935 291.993 185 294.866ZM185 295.895C173.771 298.579 162.051 300 150 300C67.1573 300 0 232.843 0 150C0 67.1573 67.1573 0 150 0C162.051 0 173.771 1.42122 185 4.1052C196.229 1.42122 207.949 0 220 0C232.051 0 243.771 1.42122 255 4.1052C266.229 1.42122 277.949 0 290 0C302.051 0 313.771 1.42122 325 4.1052C336.229 1.42122 347.949 0 360 0C442.843 0 510 67.1573 510 150C510 232.843 442.843 300 360 300C347.949 300 336.229 298.579 325 295.895C313.771 298.579 302.051 300 290 300C277.949 300 266.229 298.579 255 295.895C243.771 298.579 232.051 300 220 300C207.949 300 196.229 298.579 185 295.895ZM187.144 4.6345C198.69 7.57576 209.7 11.8563 220 17.3009C230.3 11.8563 241.31 7.57576 252.856 4.6345C242.285 2.25551 231.289 1 220 1C208.711 1 197.715 2.2555 187.144 4.6345ZM220 18.4333C172.994 43.4951 141 93.0113 141 150C141 206.989 172.994 256.505 220 281.567C232.621 274.838 244.16 266.345 254.288 256.419C226.935 229.247 210 191.601 210 150C210 108.399 226.935 70.7531 254.288 43.581C244.16 33.6546 232.621 25.1625 220 18.4333ZM255 42.8785C244.961 33.0371 233.545 24.5957 221.067 17.8702C231.689 12.3169 243.065 8.00704 255 5.13381C266.935 8.00704 278.311 12.3169 288.933 17.8702C276.455 24.5957 265.039 33.0371 255 42.8785ZM255 44.2834C227.825 71.2749 211 108.673 211 150C211 191.327 227.825 228.725 255 255.717C282.175 228.725 299 191.327 299 150C299 108.673 282.175 71.2749 255 44.2834ZM255.712 256.419C283.065 229.247 300 191.601 300 150C300 108.399 283.065 70.7531 255.712 43.581C265.84 33.6546 277.379 25.1625 290 18.4333C337.006 43.4951 369 93.0113 369 150C369 206.989 337.006 256.505 290 281.567C277.379 274.838 265.84 266.345 255.712 256.419ZM255 257.121C244.961 266.963 233.545 275.404 221.067 282.13C231.689 287.683 243.065 291.993 255 294.866C266.935 291.993 278.311 287.683 288.933 282.13C276.455 275.404 265.039 266.963 255 257.121ZM220 282.699C230.3 288.144 241.31 292.424 252.856 295.366C242.285 297.745 231.289 299 220 299C208.711 299 197.715 297.745 187.144 295.366C198.69 292.424 209.7 288.144 220 282.699ZM290 1C278.711 1 267.715 2.2555 257.144 4.6345C268.69 7.57576 279.7 11.8563 290 17.3009C300.3 11.8563 311.31 7.57576 322.856 4.6345C312.285 2.25551 301.289 1 290 1ZM291.067 17.8702C301.689 12.3169 313.065 8.00704 325 5.13381C390.403 20.8787 439 79.7642 439 150C439 220.236 390.403 279.121 325 294.866C313.065 291.993 301.689 287.683 291.067 282.13C338.062 256.8 370 207.13 370 150C370 92.8703 338.062 43.2001 291.067 17.8702ZM360 299C348.711 299 337.715 297.745 327.144 295.366C392.021 278.838 440 220.022 440 150C440 79.9779 392.021 21.162 327.144 4.6345C337.715 2.2555 348.711 1 360 1C442.29 1 509 67.7096 509 150C509 232.29 442.29 299 360 299ZM290 282.699C300.3 288.144 311.31 292.424 322.856 295.365C312.285 297.744 301.289 299 290 299C278.711 299 267.715 297.745 257.144 295.366C268.69 292.424 279.7 288.144 290 282.699Z" fill="white"/>
</svg>