<?xml version="1.0" encoding="UTF-8"?>
<svg version="1.1" viewBox="0 0 3000 1518.1" xmlns="http://www.w3.org/2000/svg" xmlns:cc="http://creativecommons.org/ns#" xmlns:dc="http://purl.org/dc/elements/1.1/" xmlns:rdf="http://www.w3.org/1999/02/22-rdf-syntax-ns#">
<title>Meryl Streep Signature</title>
<metadata>
<rdf:RDF>
<cc:Work rdf:about="">
<dc:format>image/svg+xml</dc:format>
<dc:type rdf:resource="http://purl.org/dc/dcmitype/StillImage"/>
<dc:title>Meryl Streep Signature</dc:title>
</cc:Work>
</rdf:RDF>
</metadata>
<g transform="translate(297 544.7)">
<path d="m1882.4-523.73c-10.919-2.0316-22.322-1.1806-32.405 5.4578-20.98 13.813-24.998 36.314-29.634 53.11-8.0063 29.011-5.0948 57.993-2.7752 83.814 4.6459 51.717 22.467 98.694 30.364 144.57 4.7221 27.432 8.8873 54.986 12.6 82.608-14.531 34.349-29.545 68.481-44.311 101.72-34.008 76.553-73.08 151.33-110.51 227.41-39.788 80.861-76.214 162.67-119.53 239.97-30.488 54.414-48.243 89.64-79.778 129.25-9.626 12.091-26.104 29.356-32.999 32.581-6.8946 3.225-11.601 3.62-14.668 2.5511-2.3241-0.80956-4.9037-3.3095-8.0815-10.26-3.1777-6.9504-5.8441-16.793-9.5408-26.633-15.223-40.521-21.347-85.485-23.719-130.43-1.1901-22.551 0.9462-45.68 3.1639-68.961 19.756-53.117 40.196-106.06 61.314-158.84 37.434-93.563 80.547-185.47 119.01-279.99 20.364-50.045 46.859-100.31 60.757-156.56 2.8987-11.731 8.1378-25.946 11.409-41.437 3.2716-15.49 4.6382-33.306-3.3659-50.447-9.381-20.089-28.888-31.901-49.938-33.358-31.502-2.1805-56.232 17.813-74.244 33.685-27.778 24.479-42.186 57.713-56.036 86.168-21.112 43.375-35.106 89.361-46.918 134.77-17.13 65.848-27.035 133.01-35.221 199.58-6.7524 54.918-7.5603 109.45-11.449 162.74-2.3052 31.591-6.5282 64.073-9.7673 97.089-12.027 32.476-24.118 64.931-35.145 97.828-3.647 10.881-6.2557 21.771-9.6732 32.691-7.9346-22.231-17.84-42.663-24.227-61.183-7.1689-20.787-15.296-39.387-18.272-57.149-2.937-17.533-1.4935-64.258-1.4935-64.258 0.8079-18.612-24.317-25.2-32.746-8.5863 0 0-42.715 84.129-69.235 126.3-5.5503 8.8265-24.472 33.105-33.974 44.929 2.8863-16.277 18.449-65.054 20.253-77.664 5.474-38.253 18.961-76.53 8.2694-91.456-6.5136-9.093-24.137-18.464-33.47-2.4005 0 0-36.472 62.74-54.299 94.973-14.404 26.045-24.318 45.285-41.831 78.26 13.395-74.901 36.295-149.41 49.624-227.42 5.326-31.17 25.144-70.438 12.531-112.58-1.9907-6.6512-5.0035-14.122-10.234-21.264-5.2306-7.1426-13.906-15.057-26.409-15.743-1.8238-0.10026-3.3675 0.49268-5.1202 0.579 6.5117-25.379 13.453-50.649 18.618-76.357 6.3003-31.361 21.1-68.45 12.407-108.33-5.2185-23.942-17.507-46.209-43.146-60.948-22.924-13.179-47.715-7.2097-65.612-3.1819-39.251 8.8331-71.743 25.188-101.8 45.82-52.039 35.726-100.25 78.488-140.64 127.47-24.125 29.257-44.03 61.197-62.381 93.871-9.8745-12.878-20.891-24.911-34.772-34.363-45.124-30.724-101.59-27.391-147.67-28.435-54.839-1.2418-109.43 8.0383-161.34 22.114-84.156 22.819-163.42 59.858-239.53 99.179-87.989 45.455-162.04 94.456-241.42 153.28-56.256 41.686-134.13 118.67-140.85 126.67-19.679 23.432-6.0298 46.917 15.775 27.052 7.7206-7.0337 83.843-82.847 135.82-121.36 78.072-57.851 160.45-110.38 246.57-154.87 75.274-38.887 152.39-74.75 232.7-96.524 49.685-13.472 101.11-22.053 151.51-20.911 47.653 1.0791 96.577 0.3958 128.95 22.44 14.328 9.7562 25.912 24.186 35.981 40.444-5.8492 11.4-12.412 22.594-17.927 34.027-26.449 54.838-47.528 112.44-63.297 171.13-22.522 83.822-35.876 169.9-44.104 255.72-5.6074 58.485-12.665 122.36-3.1494 187.2 1.8571 12.656 7.5118 29.743 15.156 45.679 3.822 7.9681 8.579 15.767 15.609 22.291 7.0297 6.5237 16.995 11.53 28.007 11.945 10.774 0.40628 20.91-4.0048 27.958-9.9965 7.0472-5.9919 11.769-13.2 15.722-20.464 7.9041-14.527 14.178-29.795 17.645-39.667 25.102-71.462 44.377-137.32 58.159-205.19 15.036-74.038 26.919-149.81 28.561-226.37 1.1583-54.002 4.0596-112.5-14.356-168.08-6.3266-19.093-14.881-39.191-24.704-58.539 20.114-37.603 41.65-74.153 68.116-106.25 38.071-46.17 83.893-86.889 133.53-120.96 29.459-20.224 58.621-33.562 89.794-40.577 16.698-3.7576 32.933-5.0701 40.75-0.57607 11.82 6.7949 22.573 20.033 26.556 38.307 5.7875 26.552-5.4161 58.83-12.508 94.131-7.0467 35.076-15.889 69.864-25.472 104.47-2.7159 2.7938-6.2177 5.0257-8.5517 7.9213-12.485 15.488-22.26 32.827-31.027 43.615-34.187 42.068-59.572 89.607-83.488 136-33.481 64.951-63.917 132.38-86.168 202.77-10.901 34.481-21.376 61.268-24.57 91.342-2.5882 24.37 18.649 29.556 33.533 21.292 14.884-8.2642 21.168-19.437 32.785-34.571 24.865-32.393 45.403-67.553 63.796-103.06 38.243-73.825 69.904-150.9 97.334-228.94 13.852-39.413 26.534-79.374 37.907-119.74 3.8609-2.6303 7.5845-3.8725 11.473-3.8784-0.1865-0.19722 0.04-0.0918 0.9848-0.0399-0.3328-0.0182-0.6548 0.0393-0.9848 0.0399 0.1524 0.16116 0.5436 0.47721 1.3539 1.5838 1.8016 2.4602 3.9065 7.036 5.013 10.733 7.5547 25.242-6.9793 58.65-13.5 96.812-13.365 78.217-38.213 155.89-51.794 237.42-4.9072 29.46-12.222 68.273-13.487 82.139-1.7219 18.877 30.289 31.504 39.094 14.717 6.4674-12.33 53.685-109.8 82.854-162.54 4.0534-7.3292 7.1623-12.462 12.605-22.033-1.4264 12.446-3.2905 22.608-5.6198 33.783-5.6413 27.069-19.841 62.559-20.205 80.45-0.508 24.984 26.545 46.352 47.872 24.285 12.435-12.867 35.996-48.894 57.56-83.187 16.006-25.455 24.9-44.275 39.653-72.285 0.2416 1.9425 0.059 4.3154 0.3617 6.1228 3.9497 23.579 13.202 43.877 19.7 62.717 11.083 32.134 28.018 58.325 31.718 83.833 1.9941 13.749 2.6332 27.752 2.8313 41.831-11.883 41.771-24.326 83.748-36.931 124.82-15.642 50.971-37.308 101.93-49.9 157.07-8.86 38.798-19.948 72.299-15.925 111.77 1.138 11.164 20.35 25.244 31.778 11.114 7.8617-9.7202 31.2-47.432 43.638-78.053 21.954-54.047 35.351-111.02 44.771-167.57 8.333-50.015 17.818-102.33 17.528-155.28 9.6633-33.829 18.883-68.263 29.966-101.33 0.5598-1.6701 1.2233-3.3114 1.786-4.9808 3.3753 38.446 9.1962 77.294 23.1 114.3 2.7395 7.2923 5.5065 18.016 10.461 28.853 4.9549 10.837 13.218 23.351 28.176 28.564 14.773 5.1492 29.253 1.4922 40.746-3.8836 11.493-5.3759 28.583-23.132 40.278-37.162 35.136-42.149 60.012-89.098 88.028-139.1 44.352-79.159 81-161.56 120.39-241.61 37.183-75.567 76.258-154.55 109.92-233.82 7.2669-17.11 14.224-34.182 21.013-51.305 1.0688 9.7019 2.1584 19.406 3.1209 29.12 3.2598 32.899 4.9699 64.804 7.5321 99.298 1.2336 16.607 2.109 34.74 3.8662 50.996-37.55 43.663-75.916 86.484-112.4 132.74-24.098 30.552-39.888 52.048-69.224 94.333-7.753 11.175-8.8233 24.04-7.4407 35.275 1.3825 11.235 8.0166 24.245 16.087 33.735 10.429 12.263 23.126 22.108 39.691 27.51 24.86 8.1067 53.297 12.072 78.946 3.4918 24.989-8.3589 41.996-26.509 56.601-46.338 17.883-24.281 21.087-52.006 26.38-77.066 7.7473-36.679 9.9976-73.027 9.6142-107.99-0.3119-28.455 0.6789-57.043-2.2885-84.459 12.282-14.491 24.971-28.436 36.728-43.535 3.3987-4.3649 8.521-11.953 12.128-16.669-5.2145 12.626-11.426 24.696-15.489 37.915-9.4013 30.585-15.556 63.176-15.135 96.142 0.1784 14.031-2.3959 35.336 11.527 54.145 9.2727 12.527 17.51 25.121 37.6 22.425 16.311-2.1895 30.447-14.393 38.288-23.722 7.8414-9.3288 17.309-17.983 22.426-23.14 16.427-16.557 41.456-46.813 57.3-65.344-0.7794 6.8123-4.9902 23.37-3.8679 35.077 0.7275 7.5864 1.5431 14.658 6.7786 21.833 5.2355 7.1744 13.107 14.375 24.429 16.506 14.584 2.7445 26.906-3.8619 35.394-10.131 8.4882-6.2688 15.109-13.104 19.923-16.844 25.824-20.062 46.58-44.53 65.966-68.18 12.24-14.932 21.704-30.392 30.497-43.973 5.006 6.3201 10.474 13.619 11.768 16.517 6.1507 13.778 6.488 33.001 9.6279 54.647 2.0838 14.366 2.6951 28.205 4.4879 42.367-7.2235 8.9862-14.678 17.994-21.557 26.8-21.251 27.199-40.837 56.043-57.637 86.521-21.636 39.25-43.607 80.521-56.096 126-10.58 38.522-26.879 84.241-14.118 130.27 6.5902 23.771 21.628 48.486 47.224 59.911 19.968 8.9128 41.395 5.0897 58.299-3.6497 24.825-12.835 38.084-36.765 47.992-56.603 16.004-32.046 19.168-66.609 23.768-97.28 10.522-70.168 14.711-141.44 13.181-212.27-0.3622-16.77-3.3214-32.624-5.1428-48.987 13.483-15.989 34.138-33.502 49.702-45.649 39.195-30.592 77.765-52.256 124.97-68.372 33.822-11.547 67.952-22.305 97.086-16.922 7.7834 1.438 16.455 3.7507 22.569 6.7412 22.363 10.095-1.5751 37.366-8.5522 45.391-13.388 14.638-28.43 24.915-45.697 38.144-25.278 19.366-47.793 34.903-74.57 46.998-20.164 9.1078-30.9 15.596-63.678 18.726-24.501 2.3391-27.142 23.723 0.068 24.919 33.096 1.4543 41.949-0.1823 78.102-13.802 33.919-12.778 61.908-31.258 83.783-48.22 17.117-13.113 37.292-26.682 51.294-44.458 7.6298-9.686 13.368-21.079 16.999-32.863 3.7058-12.028 9.4757-22.246 4.5218-37.478-4.6894-14.419-16.208-23.159-27.056-28.466-10.849-5.3065-22.084-7.9413-31.478-9.6769-41.192-7.6113-80.727 6.6437-114.59 18.203-50.784 17.338-92.642 40.722-135.07 73.837-9.8626 7.6977-24.607 19.307-33.141 28.038-0.6207-4.2905-0.7668-8.8701-1.3852-13.133-2.6236-18.087-2.0741-40.911-12.289-63.794-4.8911-10.957-12.678-20.309-19.551-28.413s-12.919-14.312-12.919-14.312c-7.8023-7.9988-21.025-6.6244-27.016 2.8081 0 0-27.216 42.508-41.178 59.541-19.08 23.276-38.343 45.612-60.434 62.774-7.7533 6.0231-14.052 12.482-19.254 16.324-5.2018 3.8417-7.3596 4.1694-8.4158 3.9708 0.369 0.0684-0.9565-0.30453-2.8484-2.8965-1.8917-2.5924-3.7602-6.8437-4.5729-10.174-2.1644-8.8695 5.0168-24.217 10.845-44.794 8.7365-30.846 34.93-95.729 34.93-95.729 8.2516-20.321-21.042-34.01-31.337-14.644 0 0-38.447 71.802-60.287 101.29-17.8 24.029-39.928 45.906-62.36 68.516-9.0082 9.0794-16.084 15.949-21.844 22.802-9.7881 10.304-15.308 11.198-24.046 5.4304-3.8493-5.2-4.5356-18.156-4.7369-33.993-0.3599-28.336 4.9984-57.509 13.612-85.524 14.972-48.708 37.582-95.495 63.44-142.48 14.481-26.314 36.43-61.08 58.877-95.345 21.839-9.5653 44.406-18.471 67.012-27.923 40.682-17.01 78.955-31.387 120.88-45.128 44.06-14.441 88.367-28.876 132.8-42.538 18.2-5.5961 16.786-26.585-2.1654-26.503-2.1331-0.20731-4.2862-0.018-6.3499 0.56051 0 0-86.338 21.371-132.98 36.659-42.773 14.019-83.985 27.624-125.54 44.998-6.2204 2.6009-12.584 5.1761-18.895 7.752 28.758-42.451 52.535-76.262 52.734-76.555l0.2293-0.3355v-0.0191c12.152-18.889-15.409-37.719-28.588-19.531l-0.022 0.0161s-54.46 68.162-80.889 107.83c-3.4319 5.1509-6.9219 10.97-10.556 17.25-17.408 8.1774-34.611 17.187-51.222 27.682-18.156 11.471-35.621 25.188-50.459 41.773-16.506 18.449-32.022 46.686-32.022 46.686-11.48 20.278 20.983 35.305 32.092 14.822 0 0 16.14-27.674 25.742-38.406 11.975-13.385 26.664-25.083 42.462-35.134-22.802 37.069-56.313 85.653-113.66 151.19-4.7515 5.4303-9.6652 11.167-14.22 16.788-0.4471-4.8966-1.1293-9.942-1.4911-14.813-2.47-33.253-5.8003-68.524-9.2388-103.23-2.8951-29.218-6.6327-58.308-10.894-87.327 12.232-32.804 24.199-65.966 36.48-100.08 13.129-36.473 22.762-66.259 30.968-106.55 4.4814-22.008 3.3288-44.361 2.7911-59.804-0.5101-14.645-14.385-14.916-15.446-0.19407-1.4666 20.349-3.5251 30.371-6.5789 45.41-7.4022 36.344-19.608 70.079-32.968 107.19-7.3535 20.428-15.294 41.011-23.505 61.613-1.8285-11.087-3.667-22.176-5.576-33.265-8.6519-50.26-21.777-95.697-25.859-141.14-2.3143-25.762-4.1028-50.592 1.6687-71.506 4.2903-15.545 9.4017-26.572 16.444-31.209 5.3518-3.5238 17.202-5.7414 23.15-4.2221 7.5841 1.9374 12.901 5.4715 18.743 12.749 7.2403 9.0193 10.769 13.421 16.078 20.193 8.8148 11.245 20.978 5.7849 16.308-5.8721-4.2008-10.486-6.0124-17.386-13.107-27.217-10.661-14.772-19.913-21.337-30.233-26.072-5.8109-2.6666-12.182-4.9151-18.733-6.1341zm-265.03 180.67c7.1958 0.49851 18.339 7.9033 20.938 13.468 3.4084 7.299 3.4352 16.577 0.8896 28.63-2.5454 12.053-7.5964 25.827-11.168 40.281-12.562 50.837-37.996 99.713-59.208 151.84-38.008 93.405-75.494 176.36-113.43 271.17-5.9233 14.805-23.761 61.786-29.638 76.629 2.6896-45.625 10.551-114.11 15.964-158.13 8.1165-66.012 17.869-131.64 34.372-195.08 11.564-44.452 25.008-88.226 44.531-128.33 14.16-29.092 27.567-57.503 47.806-75.339 16.123-14.208 35.053-26.089 48.94-25.128zm268.99 476.61c1.341 15.463 3.0277 30.994 3.1946 46.213 0.383 34.936 0.576 69.176-6.1235 100.89-5.1828 24.538-11.196 48.092-23.375 64.627-11.113 15.088-29.97 31.135-46.108 36.533-17.24 5.7669-34.291 4.9144-52.094 0.0528-11.785-3.2182-19.699-6.6558-27.594-13.074-5.5969-4.5496-12.068-10.106-13.061-17.25-0.9955-7.1645 6.6877-18.475 7.8949-20.215 29.153-42.022 44.183-62.479 67.955-92.617 28.195-35.746 58.722-70.282 89.311-105.16zm427.43 97.163c0.1859 3.7953 1.1443 7.7619 1.226 11.543 1.4895 68.956-2.582 138.26-12.794 206.36-4.7667 31.789-8.2952 62.498-20.51 86.956-9.0102 18.041-20.125 34.691-32.911 41.302-8.8007 4.55-21.809 5.6682-28.264 2.7866-11.865-5.2959-23.6-21.771-27.97-37.532-8.9473-32.274 3.1986-72.022 14.139-111.86 11.142-40.568 31.603-79.544 53.042-118.44 15.616-28.329 33.989-55.383 54.044-81.122zm-1305.1-36.762c-2.7508 8.1294-4.9855 16.415-7.8309 24.51-27.031 76.908-58.096 152.5-95.401 224.52-14.28 27.565-33.924 63.625-51.348 88.69 2.6646-12.18 5.4475-25.176 9.5684-37.345 22.927-67.702 50.998-133.47 83.919-197.33 18.591-36.065 38.629-70.722 61.092-103.04zm-310.42-29.3c4.1558 10.08 9.2958 19.55 12.697 29.813 15.728 47.465 13.765 101.93 12.596 156.45-1.5757 73.454-13.036 147.21-27.861 220.21-13.926 68.571-31.446 130.81-55.283 196.78-4.9929 13.818-11.391 28.115-16.998 38.42-2.8032 5.1521-5.7108 8.8993-7.7478 10.631-2.0372 1.732-2.4358 1.8246-4.2305 1.7568-2.2596-0.0851-3.381-0.52501-5.735-2.7076-2.3536-2.1842-5.2927-6.3576-7.9423-11.881-5.2992-11.048-10.965-26.408-13.038-40.022-8.0729-53.026-1.6226-112.99 4.2825-174.58 8.0988-84.47 21.202-168.66 43.071-250.05 15.234-56.699 35.587-112.27 61.044-165.05 1.6047-3.3271 3.5208-6.454 5.1464-9.7711z" color="red" color-rendering="auto" fill-rule="evenodd" image-rendering="auto" shape-rendering="auto" solid-color="red" style="block-progression:tb;isolation:auto;mix-blend-mode:normal;text-decoration-color:red;text-decoration-line:none;text-decoration-style:solid;text-indent:0;text-transform:none;white-space:normal"/>
</g>
</svg>
